# xmcd CD database file
#
# Track frame offsets:
#	150
#	9343
#	16367
#	27477
#	37491
#	45167
#	53233
#	62302
#	70440
#	81380
#	89434
#	99277
#
# Disc length: 1536 seconds
#
# Revision: 0
# Processed by: cddbd v1.5.2PL0 Copyright (c) Steve Scherf et al.
# Submitted via: CDex 1.51
#
DISCID=9505fe0c
DTITLE=Me First and the Gimme Gimmes - Love Their Country
DYEAR=2006
DGENRE=Country
TTITLE0=Much Too Young (To Feel This Damn Old)
TTITLE1=(Ghost) Riders In The Sky
TTITLE2=Desperado
TTITLE3=On The Road Again
TTITLE4=Annie's Song
TTITLE5=Jolene
TTITLE6=I'm So Lonesome I Could Cry
TTITLE7=Lookin' For Love
TTITLE8=Goodbye Earl
TTITLE9=East Bound And Down
TTITLE10=She Believes In Me
TTITLE11=Sunday Morning Coming Down
EXTD=YEAR: 2006
EXTT0=
EXTT1=
EXTT2=
EXTT3=
EXTT4=
EXTT5=
EXTT6=
EXTT7=
EXTT8=
EXTT9=
EXTT10=
EXTT11=
PLAYORDER=
